<?xml version="1.0" encoding="UTF-8"?>
<svg version="1.1" xmlns="http://www.w3.org/2000/svg" width="447" height="447">
<path d="M0 0 C147.51 0 295.02 0 447 0 C447 147.51 447 295.02 447 447 C299.49 447 151.98 447 0 447 C0 299.49 0 151.98 0 0 Z " fill="#FEFEFE" transform="translate(0,0)"/>
<path d="M0 0 C7.58894909 -0.06965285 15.17786484 -0.12288865 22.76706123 -0.15543652 C26.29143732 -0.17106162 29.81559394 -0.19224144 33.33984375 -0.22631836 C37.39585421 -0.26528952 41.4516358 -0.27973523 45.5078125 -0.29296875 C46.76739777 -0.30845261 48.02698303 -0.32393646 49.32473755 -0.33988953 C50.50550873 -0.34011612 51.68627991 -0.34034271 52.90283203 -0.34057617 C54.45503952 -0.35056892 54.45503952 -0.35056892 56.03860474 -0.36076355 C61.58216289 0.31456465 65.33445094 2.91150297 69 7 C71.79589043 5.76980821 73.48179412 4.55710877 75.77563477 2.44848633 C81.24341462 -1.46020521 87.57680797 -0.61651182 94.02734375 -0.48828125 C95.38496085 -0.4789421 96.74259493 -0.4718312 98.10023499 -0.46684265 C101.65328457 -0.4478586 105.20529304 -0.3988359 108.75793457 -0.34332275 C112.3912142 -0.29194201 116.024664 -0.26928878 119.65820312 -0.24414062 C126.7725583 -0.19070581 133.88621076 -0.1055004 141 0 C141.14081972 14.21339293 141.24588593 28.42667605 141.31087303 42.64062595 C141.34207659 49.24202875 141.38434915 55.84296019 141.45263672 62.4440918 C141.5182199 68.82432065 141.55378842 75.20409846 141.56926346 81.5846386 C141.58028003 84.00893177 141.60179156 86.43320255 141.63438034 88.85730171 C141.89469457 109.03821661 139.24781717 122.27955943 126 138 C125.3503125 138.80050781 124.700625 139.60101563 124.03125 140.42578125 C118.97888166 146.42029204 113.14545789 151.16833902 107 156 C106.19691406 156.66902344 105.39382813 157.33804688 104.56640625 158.02734375 C98.28547077 163.23567284 91.62366764 167.59854296 84.71630859 171.90966797 C83.05824579 172.96299776 81.42876987 174.06091607 79.80078125 175.16015625 C78.83527344 175.80855469 77.86976563 176.45695313 76.875 177.125 C76.02679688 177.70507812 75.17859375 178.28515625 74.3046875 178.8828125 C72 180 72 180 69.98828125 179.82421875 C54.96424311 173.59617937 41.20163835 162.57597096 29 152 C27.52273437 150.74123047 27.52273437 150.74123047 26.015625 149.45703125 C15.91473407 140.66806931 7.08134017 130.55514467 2 118 C1.65534698 117.18832367 1.31069397 116.37664734 0.95559692 115.54037476 C-0.35995913 110.66639356 -0.26228578 106.06376617 -0.22705078 101.03759766 C-0.22748886 99.39768356 -0.22748886 99.39768356 -0.22793579 97.72463989 C-0.22654556 94.12103258 -0.21099852 90.51763357 -0.1953125 86.9140625 C-0.19158129 84.41157138 -0.18873483 81.9090788 -0.18673706 79.40658569 C-0.17988827 73.49936861 -0.16413491 67.59221805 -0.14403808 61.68503511 C-0.11944978 54.29654708 -0.10873951 46.90804974 -0.09765625 39.51953125 C-0.07622121 26.34631641 -0.04248102 13.17316292 0 0 Z " fill="#087FB0" transform="translate(153,115)"/>
<path d="M0 0 C6.111002 2.31122119 11.681279 5.57567404 17.375 8.75 C17.96837158 9.0795871 18.56174316 9.40917419 19.1730957 9.74874878 C28.66314834 15.02638983 37.99905016 20.52373102 47.22412109 26.25488281 C52.67752826 29.63569031 58.20154902 32.79922189 63.86523438 35.81616211 C66 37 66 37 67 38 C68.65997996 53.13943749 66.21111147 65.11288649 57.06640625 77.4375 C43.42446787 94.35453511 23.47016731 112.76743271 3 121 C-6.86271585 120.55885616 -18.43137424 109.70800526 -26 104 C-27.051875 103.22785156 -28.10375 102.45570313 -29.1875 101.66015625 C-43.32462558 91.18077127 -60.14525447 76.95102084 -64 59 C-64.54018743 51.6753794 -64.31800739 44.33080411 -64 37 C-63.25016846 36.5875 -62.50033691 36.175 -61.7277832 35.75 C-58.8765922 34.17946768 -56.02704296 32.60602845 -53.1784668 31.03076172 C-51.95838361 30.35678668 -50.73770415 29.68388963 -49.51635742 29.01220703 C-41.9370431 24.84280278 -34.50968418 20.50915059 -27.1628418 15.93701172 C-22.10384922 12.83874487 -16.93045913 9.95147164 -11.75 7.0625 C-9.7231424 5.92984428 -7.69705504 4.79580873 -5.671875 3.66015625 C-4.35848145 2.92744507 -4.35848145 2.92744507 -3.01855469 2.17993164 C-1.07206256 1.15660288 -1.07206256 1.15660288 0 0 Z " fill="#FBF9FA" transform="translate(222,168)"/>
<path d="M0 0 C4.40830916 2.16407904 7.12843553 4.42506462 9 9 C9.53218983 14.58799317 9.25015553 18.23310522 6 23 C1.7813265 26.90999007 -1.93701208 27.73831148 -7.5234375 27.52734375 C-11.66304097 26.64588244 -14.40044667 24.26732849 -17 21 C-18.45857967 16.62426098 -18.75239657 12.56269847 -18 8 C-13.56696755 0.40246438 -8.44266596 -0.93375107 0 0 Z " fill="#0E81B2" transform="translate(346,324)"/>
<path d="M0 0 C2.5625 1.5625 2.5625 1.5625 4 4 C4.0625 7.5 4.0625 7.5 3 11 C2.154375 11.5775 1.30875 12.155 0.4375 12.75 C-2.2746968 14.73260849 -2.2746968 14.73260849 -2.15234375 17.51171875 C-2.07693359 18.95998047 -2.07693359 18.95998047 -2 20.4375 C-1.76329787 25.63798498 -1.76329787 25.63798498 -4.125 29.25 C-7 31 -7 31 -9.875 31.375 C-15.44585126 28.92382545 -18.67900648 23.7222906 -21.28515625 18.3515625 C-21.52105469 17.57554687 -21.75695312 16.79953125 -22 16 C-21.05988318 14.29883624 -20.05104383 12.63495707 -19 11 C-18.28076792 7.30476048 -18.28076792 7.30476048 -18 4 C-11.85744007 1.18046429 -6.80560577 -0.93870424 0 0 Z " fill="#BF1824" transform="translate(256,221)"/>
<path d="M0 0 C3.375 1.125 3.375 1.125 5.25 2.8125 C6.59287191 5.57284782 7.02975314 8.08682759 7.375 11.125 C9.2003125 11.00125 9.2003125 11.00125 11.0625 10.875 C14.29199298 10.88647244 15.41622599 11.14733075 18.375 12.75 C20.375 15.125 20.375 15.125 21.0625 18.0625 C20.28445776 21.52832453 19.07592448 22.9899585 16.2265625 25.08984375 C11.84897983 27.53722647 7.36484012 28.125 2.375 28.125 C0.68626121 26.48070171 -0.97805515 24.81115782 -2.625 23.125 C-4.60304822 22.08225112 -6.60106944 21.07563405 -8.625 20.125 C-9.48412827 6.18803022 -9.48412827 6.18803022 -6.5625 2.1875 C-3.625 0.125 -3.625 0.125 0 0 Z " fill="#BF1824" transform="translate(233.625,191.875)"/>
<path d="M0 0 C0.79792969 0.19464844 1.59585938 0.38929688 2.41796875 0.58984375 C5.17567976 1.13418801 7.11242011 0.75790246 9.8125 0.0625 C18.37617243 10.63328316 18.37617243 10.63328316 18.5 15.0625 C17.8125 18.0625 17.8125 18.0625 16.8125 20 C13.64495911 21.6827561 10.3211342 21.60718716 6.8125 21.0625 C5.8225 20.4025 4.8325 19.7425 3.8125 19.0625 C3.8125 18.4025 3.8125 17.7425 3.8125 17.0625 C2.8225 17.7225 1.8325 18.3825 0.8125 19.0625 C-3.38278659 21.47201287 -6.40661497 21.5486917 -11.1875 21.0625 C-13.46372898 18.78627102 -13.60160476 18.17042989 -13.8125 15.0625 C-13.66820042 9.52500364 -11.16747422 5.99945074 -7.61328125 1.90234375 C-4.72860163 -0.28555336 -3.5446365 -0.41982951 0 0 Z " fill="#BE1522" transform="translate(221.1875,240.9375)"/>
<path d="M0 0 C2.80890242 0.99904261 3.89130348 1.5287499 5.3515625 4.16015625 C6.125 6.5625 6.125 6.5625 6.65234375 8.90625 C7.12685791 11.337641 7.12685791 11.337641 9.1875 14.0625 C8.87230041 17.99927854 7.45993087 20.59216063 5.25 23.8125 C4.72535156 24.59109375 4.20070312 25.3696875 3.66015625 26.171875 C2.1875 28.0625 2.1875 28.0625 0.1875 29.0625 C-6.17280949 29.52506796 -6.17280949 29.52506796 -8.51953125 27.828125 C-10.16270948 25.58426832 -10.15432814 24.31734432 -10.0625 21.5625 C-10.04703125 20.7890625 -10.0315625 20.015625 -10.015625 19.21875 C-9.8125 17.0625 -9.8125 17.0625 -8.8125 14.0625 C-9.410625 13.815 -10.00875 13.5675 -10.625 13.3125 C-13.22570743 11.82638147 -14.35666577 10.68300161 -15.8125 8.0625 C-16.19300713 4.95502511 -16.29799091 2.97279546 -14.8125 0.1875 C-10.30804868 -2.34625387 -4.81447494 -1.15453151 0 0 Z " fill="#BE1622" transform="translate(202.8125,221.9375)"/>
<path d="M0 0 C3.35823575 0.77497748 4.37803371 1.78632217 6.4375 4.5625 C6.92667242 7.49492659 6.81523287 10.35008008 6.6875 13.3125 C6.66945312 14.10527344 6.65140625 14.89804688 6.6328125 15.71484375 C6.58583082 17.66458348 6.51409044 19.61369878 6.4375 21.5625 C5.32246094 22.01238281 4.20742187 22.46226562 3.05859375 22.92578125 C-0.43093613 24.5030337 -1.67785781 25.34752215 -3.5625 28.5625 C-9.99030505 27.99865745 -15.05786608 26.93660685 -20.5 23.25 C-22.1871397 20.57042518 -22.003308 18.64815601 -21.5625 15.5625 C-20.125 13.1875 -20.125 13.1875 -17.5625 11.5625 C-14.53203066 11.23911084 -11.59721946 11.32906004 -8.5625 11.5625 C-8.4696875 10.2321875 -8.4696875 10.2321875 -8.375 8.875 C-7.21110165 4.12987594 -4.91334293 1.07853869 0 0 Z " fill="#BE1521" transform="translate(214.5625,191.4375)"/>
<path d="M0 0 C1.98 0 3.96 0 6 0 C6.01458252 0.73114014 6.02916504 1.46228027 6.04418945 2.21557617 C6.1188291 5.54007371 6.21543801 8.86358467 6.3125 12.1875 C6.33505859 13.33798828 6.35761719 14.48847656 6.38085938 15.67382812 C6.41630859 16.78564453 6.45175781 17.89746094 6.48828125 19.04296875 C6.51446533 20.06414795 6.54064941 21.08532715 6.56762695 22.13745117 C7.06123383 25.40540181 8.06368766 27.34188999 10 30 C12.62878161 31.12276504 15.16096191 31.20605922 18 31 C21.26711826 29.32455474 21.827811 28.51656699 23 25 C23.14939774 23.08234406 23.24810283 21.16053478 23.31640625 19.23828125 C23.35830078 18.12001953 23.40019531 17.00175781 23.44335938 15.84960938 C23.48267578 14.68236328 23.52199219 13.51511719 23.5625 12.3125 C23.60568359 11.13365234 23.64886719 9.95480469 23.69335938 8.74023438 C23.79951176 5.82694117 23.90156242 2.91356243 24 0 C25.98 0 27.96 0 30 0 C30.11647041 4.54144994 30.18734502 9.08251394 30.25 13.625 C30.28351563 14.91019531 30.31703125 16.19539063 30.3515625 17.51953125 C30.47437333 29.37077587 30.47437333 29.37077587 26 34 C21.53620676 37.26619018 17.08601323 37.62782255 11.6953125 37.48828125 C7.34586705 36.70033823 4.69013713 34.41953292 2 31 C-0.16983854 27.53142238 -0.23352252 24.75338672 -0.1953125 20.703125 C-0.18886719 19.49785156 -0.18242188 18.29257812 -0.17578125 17.05078125 C-0.15064453 15.16939453 -0.15064453 15.16939453 -0.125 13.25 C-0.11597656 11.98027344 -0.10695313 10.71054687 -0.09765625 9.40234375 C-0.07409005 6.26803907 -0.04118832 3.13411459 0 0 Z " fill="#1383B1" transform="translate(69,314)"/>
<path d="M0 0 C3.06881816 1.71904752 5.40357084 3.80714167 7 7 C7.08372659 8.52148326 7.10730027 10.04655778 7.09765625 11.5703125 C7.09443359 12.46621094 7.09121094 13.36210937 7.08789062 14.28515625 C7.07951172 15.22230469 7.07113281 16.15945313 7.0625 17.125 C7.05798828 18.06988281 7.05347656 19.01476562 7.04882812 19.98828125 C7.03702357 22.32558387 7.02055759 24.66276061 7 27 C5.35 27 3.7 27 2 27 C2 26.34 2 25.68 2 25 C1.484375 25.495 0.96875 25.99 0.4375 26.5 C-2.88974216 28.54753364 -5.14830194 28.33786825 -9 28 C-12.13343209 27.02515446 -13.67622995 26.32377005 -16 24 C-16.40463307 20.91467283 -16.61747875 18.96276503 -16 16 C-13.111587 12.25286962 -13.111587 12.25286962 -10 11 C-6.29192868 10.60833815 -2.7122886 10.70275269 1 11 C0.34 9.68 -0.32 8.36 -1 7 C-4.37356857 6.9338516 -7.49609847 6.89921969 -10.8125 7.5625 C-13 8 -13 8 -15 7 C-12.12231691 0.04559921 -7.09041587 -1.3493871 0 0 Z " fill="#1484B3" transform="translate(138,376)"/>
<path d="M0 0 C3.75212276 2.01502889 5.63644095 3.45466142 8 7 C8.22705078 9.17651367 8.22705078 9.17651367 8.1953125 11.66796875 C8.18886719 12.56064453 8.18242187 13.45332031 8.17578125 14.37304688 C8.15902344 15.30181641 8.14226562 16.23058594 8.125 17.1875 C8.11597656 18.12787109 8.10695312 19.06824219 8.09765625 20.03710938 C8.07409056 22.35832968 8.04119116 24.67903644 8 27 C6.35 27 4.7 27 3 27 C3 26.34 3 25.68 3 25 C2.525625 25.495 2.05125 25.99 1.5625 26.5 C-2.23885397 28.72518281 -5.69797944 28.5456607 -10 28 C-12.5 27.0625 -12.5 27.0625 -14 25 C-14.8766462 21.95480794 -15.25176096 19.16417747 -15 16 C-12.85065086 12.92950123 -11.54925112 12.18308371 -8 11 C-6.27204648 10.93197033 -4.54164635 10.91504355 -2.8125 10.9375 C-1.91144531 10.94652344 -1.01039063 10.95554687 -0.08203125 10.96484375 C0.60503906 10.97644531 1.29210937 10.98804688 2 11 C1.34 9.68 0.68 8.36 0 7 C-2.33294775 6.95758277 -4.66702567 6.95907063 -7 7 C-7.33 7.33 -7.66 7.66 -8 8 C-9.66617115 8.04063832 -11.33388095 8.042721 -13 8 C-13 4 -13 4 -11 1.75 C-7.26112609 -0.43100978 -4.18431083 -0.827036 0 0 Z " fill="#1483B3" transform="translate(224,376)"/>
<path d="M0 0 C4.20475482 1.6997945 6.20472472 3.8425204 8 8 C8 10.31 8 12.62 8 15 C1.73 15 -4.54 15 -11 15 C-8.62615956 20.24017805 -8.62615956 20.24017805 -4.5625 21 C-1.03980136 21.30161611 -1.03980136 21.30161611 1.4375 19.5625 C1.953125 19.046875 2.46875 18.53125 3 18 C4.32 18.66 5.64 19.32 7 20 C5.59458486 23.39641991 4.11507093 25.05444693 1 27 C-3.99472135 27.9148747 -7.9961266 27.51986301 -12.5 25.1875 C-15.47642563 22.58312757 -16.8846453 21.01673097 -17.3359375 17.0390625 C-17.34882813 15.91242188 -17.36171875 14.78578125 -17.375 13.625 C-17.40335938 12.50351562 -17.43171875 11.38203125 -17.4609375 10.2265625 C-16.9056641 6.33964872 -15.71904952 4.7779459 -13 2 C-8.74178609 -0.83880927 -4.99661255 -0.51165313 0 0 Z " fill="#1081B3" transform="translate(194,324)"/>
<path d="M0 0 C3.32015872 2.08386162 6.2312203 4.46244061 8 8 C8 10.31 8 12.62 8 15 C1.73 15 -4.54 15 -11 15 C-9.23148964 18.18074165 -9.23148964 18.18074165 -7 21 C-3.54178598 21.25003964 -3.54178598 21.25003964 0 21 C0.66 20.34 1.32 19.68 2 19 C5.125 19.375 5.125 19.375 8 20 C6.48209259 24.25014075 3.93622829 25.95899274 0 28 C-4.41467409 28.87941715 -7.29814306 28.35754976 -11.3125 26.3125 C-14.78982409 23.32038392 -16.68558109 21.31738379 -17.31640625 16.66796875 C-17.58213652 10.95048191 -16.96847152 7.39749547 -13 3 C-9.12547232 -0.22877307 -4.91320853 -1.17954156 0 0 Z " fill="#1082B1" transform="translate(342,376)"/>
<path d="M0 0 C3.76110572 0.02155361 5.955079 0.3286021 8.875 2.75 C12.43441441 6.58321552 12.70465852 8.96542972 12.671875 14.046875 C12.06705722 17.96504236 10.14373243 19.67858816 7.3125 22.375 C4.11907621 23.97171189 0.78704369 23.74918163 -2.6875 23.375 C-6.43311717 21.71028126 -8.50761374 19.81274779 -10.6875 16.375 C-11.3510265 12.9744267 -11.29971119 9.78352716 -10.6875 6.375 C-8.25 3.3125 -8.25 3.3125 -5.6875 1.375 C-4.05531064 -0.25718936 -2.24806873 0.08736889 0 0 Z " fill="#BE1622" transform="translate(222.6875,215.625)"/>
<path d="M0 0 C1.98 0 3.96 0 6 0 C6 4.29 6 8.58 6 13 C7.32 12.01 8.64 11.02 10 10 C13.80417358 9.58499925 16.2786247 9.69541932 19.8125 11.1875 C22.52211769 13.4326118 23.01569829 14.61011786 24 18 C24.23441984 21.27566065 24.18862947 24.53068754 24.125 27.8125 C24.11597656 28.69615234 24.10695313 29.57980469 24.09765625 30.49023438 C24.07419637 32.66027359 24.03832865 34.83017247 24 37 C22.02 37 20.04 37 18 37 C17.92652344 35.08574219 17.92652344 35.08574219 17.8515625 33.1328125 C17.77653809 31.46351928 17.70099012 29.79424954 17.625 28.125 C17.5940625 27.28324219 17.563125 26.44148438 17.53125 25.57421875 C17.49257813 24.76855469 17.45390625 23.96289062 17.4140625 23.1328125 C17.36693115 22.01737061 17.36693115 22.01737061 17.31884766 20.87939453 C17.14580449 18.75989026 17.14580449 18.75989026 15 17 C12 16.66666667 12 16.66666667 9 17 C6.64641749 19.35358251 6.72128096 19.92968394 6.5859375 23.1328125 C6.54726563 23.93847656 6.50859375 24.74414062 6.46875 25.57421875 C6.4378125 26.41597656 6.406875 27.25773437 6.375 28.125 C6.33632813 28.97449219 6.29765625 29.82398438 6.2578125 30.69921875 C6.16343506 32.79911684 6.08062414 34.89952891 6 37 C4.02 37 2.04 37 0 37 C0 24.79 0 12.58 0 0 Z " fill="#1181B2" transform="translate(263,366)"/>
<path d="M0 0 C1.98 0 3.96 0 6 0 C8.8018492 5.91382675 11.44303409 11.630594 13 18 C13.66 18 14.32 18 15 18 C15.1134375 17.30390625 15.226875 16.6078125 15.34375 15.890625 C16.07834562 12.65490619 17.20619388 9.80398421 18.5 6.75 C18.9434375 5.69296875 19.386875 4.6359375 19.84375 3.546875 C21 1 21 1 22 0 C23.99958364 -0.04080783 26.00045254 -0.04254356 28 0 C26.13899061 5.97481961 23.90855721 11.56000046 21.2578125 17.2265625 C20.0488744 19.89223347 18.98027841 22.57828575 17.9375 25.3125 C16.00788946 30.22636652 13.76665697 34.23334303 10 38 C7.8359375 37.9765625 7.8359375 37.9765625 5.375 37.625 C4.55773437 37.51414062 3.74046875 37.40328125 2.8984375 37.2890625 C1.95871094 37.14597656 1.95871094 37.14597656 1 37 C1.33 35.35 1.66 33.7 2 32 C4.31 32 6.62 32 9 32 C10.65331325 24.74379185 9.04891755 20.76801121 5.625 14.3125 C4.77895154 12.66526929 3.93764104 11.01559469 3.1015625 9.36328125 C2.72338379 8.64438721 2.34520508 7.92549316 1.95556641 7.18481445 C0.91476234 4.80511195 0.42309061 2.55619579 0 0 Z " fill="#1484B2" transform="translate(284,324)"/>
<path d="M0 0 C1.98 0 3.96 0 6 0 C6.33 0.66 6.66 1.32 7 2 C7.66 1.34 8.32 0.68 9 0 C12.05610339 -0.57039258 14.94031349 -0.5337277 18 0 C20.75569447 2.18159145 22.43588747 3.87177494 24 7 C24.08372659 8.52148326 24.10730027 10.04655778 24.09765625 11.5703125 C24.09443359 12.46621094 24.09121094 13.36210937 24.08789062 14.28515625 C24.07951172 15.22230469 24.07113281 16.15945313 24.0625 17.125 C24.05798828 18.06988281 24.05347656 19.01476562 24.04882812 19.98828125 C24.03702357 22.32558387 24.02055759 24.66276061 24 27 C22.02 27 20.04 27 18 27 C17.98018066 26.43490723 17.96036133 25.86981445 17.93994141 25.28759766 C17.84481764 22.73292003 17.73508942 20.17907459 17.625 17.625 C17.5940625 16.73554688 17.563125 15.84609375 17.53125 14.9296875 C17.49257812 14.07890625 17.45390625 13.228125 17.4140625 12.3515625 C17.36693115 11.17327881 17.36693115 11.17327881 17.31884766 9.97119141 C17.1600535 7.76997061 17.1600535 7.76997061 15 6 C11.43407381 6.16417032 11.43407381 6.16417032 8 7 C6.88176185 9.23647631 6.80603939 10.64891529 6.68359375 13.1328125 C6.64169922 13.93847656 6.59980469 14.74414062 6.55664062 15.57421875 C6.49766602 16.83685547 6.49766602 16.83685547 6.4375 18.125 C6.37272461 19.39923828 6.37272461 19.39923828 6.30664062 20.69921875 C6.20045764 22.79928223 6.09971503 24.89961948 6 27 C4.02 27 2.04 27 0 27 C0 18.09 0 9.18 0 0 Z " fill="#1383B2" transform="translate(106,324)"/>
<path d="M0 0 C3.18970543 0.56581519 4.85213289 2.00807963 7.00390625 4.35546875 C7.97155342 7.23982354 8.12202101 9.87448379 8.1015625 12.90234375 C8.09833984 13.74667969 8.09511719 14.59101563 8.09179688 15.4609375 C8.08341797 16.33363281 8.07503906 17.20632813 8.06640625 18.10546875 C8.06189453 18.99363281 8.05738281 19.88179688 8.05273438 20.796875 C8.04098025 22.98314204 8.02454874 25.16927054 8.00390625 27.35546875 C6.02390625 27.35546875 4.04390625 27.35546875 2.00390625 27.35546875 C1.94332031 26.07929688 1.88273437 24.803125 1.8203125 23.48828125 C1.73591057 21.81899859 1.65126239 20.14972838 1.56640625 18.48046875 C1.52708984 17.63871094 1.48777344 16.79695313 1.44726562 15.9296875 C1.40537109 15.12402344 1.36347656 14.31835938 1.3203125 13.48828125 C1.28365479 12.74465332 1.24699707 12.00102539 1.20922852 11.23486328 C1.1043476 9.26682563 1.1043476 9.26682563 0.00390625 7.35546875 C-3.41252134 7.10531002 -3.41252134 7.10531002 -6.99609375 7.35546875 C-8.97174995 10.31895304 -9.25986234 11.03567248 -9.41015625 14.3671875 C-9.44882813 15.12451172 -9.4875 15.88183594 -9.52734375 16.66210938 C-9.55828125 17.44779297 -9.58921875 18.23347656 -9.62109375 19.04296875 C-9.65976563 19.84025391 -9.6984375 20.63753906 -9.73828125 21.45898438 C-9.83241869 23.4241035 -9.91534007 25.38975415 -9.99609375 27.35546875 C-11.97609375 27.35546875 -13.95609375 27.35546875 -15.99609375 27.35546875 C-15.99609375 18.77546875 -15.99609375 10.19546875 -15.99609375 1.35546875 C-14.01609375 1.35546875 -12.03609375 1.35546875 -9.99609375 1.35546875 C-9.66609375 2.01546875 -9.33609375 2.67546875 -8.99609375 3.35546875 C-8.66609375 2.86046875 -8.33609375 2.36546875 -7.99609375 1.85546875 C-5.39866266 -0.09260457 -3.18987307 -0.12336526 0 0 Z " fill="#1082B2" transform="translate(166.99609375,375.64453125)"/>
<path d="M0 0 C2.475 0.99 2.475 0.99 5 2 C4.3125 4.4375 4.3125 4.4375 3 7 C0.375 7.8125 0.375 7.8125 -2 8 C-2 8.33 -2 8.66 -2 9 C-3.21236328 9.18175781 -3.21236328 9.18175781 -4.44921875 9.3671875 C-5.51785156 9.53476563 -6.58648437 9.70234375 -7.6875 9.875 C-8.74324219 10.03742188 -9.79898438 10.19984375 -10.88671875 10.3671875 C-13.88795037 10.97722454 -16.33198751 11.48908253 -19 13 C-19.96308177 15.25858068 -19.96308177 15.25858068 -20.1875 17.875 C-20.65772179 21.33707251 -21.27339016 23.94468218 -23 27 C-21.71053695 28.79325326 -20.41835648 30.58455278 -19.125 32.375 C-18.40570313 33.37273437 -17.68640625 34.37046875 -16.9453125 35.3984375 C-15.22948055 37.69310433 -13.64023688 39.5075101 -11.375 41.25 C-9.38309225 43.78515532 -9.7916667 45.87500056 -10 49 C-11.65 49 -13.3 49 -15 49 C-15.33 46.69 -15.66 44.38 -16 42 C-16.66 42 -17.32 42 -18 42 C-18.33 43.32 -18.66 44.64 -19 46 C-19.20625 44.845 -19.4125 43.69 -19.625 42.5 C-20.92360779 37.56175679 -22.74777263 33.05524211 -27 30 C-30.02411235 29.77103149 -32.54326696 30.0958741 -35.51171875 30.6953125 C-38 31 -38 31 -41 29 C-37.9489836 26.96598907 -36.5800193 26.66884475 -33.0625 26.1875 C-29.64538227 25.52901892 -28.16607935 25.13049092 -25.375 22.9375 C-23.46051639 18.84746683 -23.23517476 15.4359864 -24 11 C-25.25387006 7.91182268 -25.25387006 7.91182268 -28 6 C-30.96568038 5.03015616 -33.91442246 4.44173866 -37 4 C-37 3.67 -37 3.34 -37 3 C-36.071875 2.855625 -35.14375 2.71125 -34.1875 2.5625 C-30.99274889 2.07899889 -30.99274889 2.07899889 -28 1 C-24.8125 3.3125 -24.8125 3.3125 -22 6 C-22 6.66 -22 7.32 -22 8 C-15.07 6.515 -15.07 6.515 -8 5 C-8.33 5.66 -8.66 6.32 -9 7 C-7.68 7 -6.36 7 -5 7 C-4.731875 6.401875 -4.46375 5.80375 -4.1875 5.1875 C-3.01506533 3.02775192 -1.80630718 1.64209744 0 0 Z " fill="#F8EAEA" transform="translate(258,212)"/>
<path d="M0 0 C2.3324223 1.45649078 4.01251848 3.06099364 6 5 C5.01 5.99 4.02 6.98 3 8 C2.01 7.67 1.02 7.34 0 7 C-2.33299825 6.96045766 -4.66708189 6.95598268 -7 7 C-6.67 7.99 -6.34 8.98 -6 10 C-3.99939943 10.91521187 -3.99939943 10.91521187 -1.625 11.5 C1.73182257 12.41847914 3.85011462 13.18548129 6 16 C6.51126266 20.01706374 6.68398851 22.10373919 4.1875 25.375 C0.68499269 27.97686258 -2.60319917 28.39133494 -6.92578125 28.359375 C-10.64151117 27.71559505 -12.44024663 25.68774104 -15 23 C-15 22.34 -15 21.68 -15 21 C-12.75 19.8125 -12.75 19.8125 -10 19 C-8.64664105 19.97272675 -7.31337396 20.9739266 -6 22 C-3.3015411 21.77802187 -3.3015411 21.77802187 -1 21 C-1 20.01 -1 19.02 -1 18 C-1.60328125 17.82984375 -2.2065625 17.6596875 -2.828125 17.484375 C-11.45856354 14.86740331 -11.45856354 14.86740331 -14 11 C-14.5 8 -14.5 8 -14 5 C-10.13237849 0.06544842 -6.09589486 -0.61992151 0 0 Z " fill="#1382B3" transform="translate(252,376)"/>
<path d="M0 0 C2.63575642 1.4247332 4.38342989 2.96369469 6.3125 5.25 C6.3125 5.91 6.3125 6.57 6.3125 7.25 C3.4375 7.875 3.4375 7.875 0.3125 8.25 C-0.3475 7.59 -1.0075 6.93 -1.6875 6.25 C-6.31057869 5.81706829 -6.31057869 5.81706829 -10.625 7.25 C-12.31934205 10.43934975 -12.05826101 13.71351041 -11.6875 17.25 C-11.3575 18.24 -11.0275 19.23 -10.6875 20.25 C-9.22957116 20.30399736 -7.77107288 20.34279177 -6.3125 20.375 C-5.50039062 20.39820313 -4.68828125 20.42140625 -3.8515625 20.4453125 C-1.47407757 20.46370051 -1.47407757 20.46370051 0.3125 18.25 C3.4375 18.625 3.4375 18.625 6.3125 19.25 C4.80533703 23.08641483 2.82836512 25.10990819 -0.6875 27.25 C-6.22955101 27.86578345 -10.00305902 27.5504016 -14.6875 24.25 C-18.54131513 19.07777443 -19.39805883 15.64502944 -18.6875 9.25 C-15.61103756 0.36244183 -8.8537007 -2.47080019 0 0 Z " fill="#1382B3" transform="translate(198.6875,376.75)"/>
<path d="M0 0 C3.125 1.3125 3.125 1.3125 5 3 C5 3.99 5 4.98 5 6 C0.74433453 7.16063604 -2.6835078 6.76173392 -7 6 C-7 6.99 -7 7.98 -7 9 C-6.31292969 9.24234375 -5.62585938 9.4846875 -4.91796875 9.734375 C-4.01691406 10.06953125 -3.11585938 10.4046875 -2.1875 10.75 C-1.29417969 11.07484375 -0.40085938 11.3996875 0.51953125 11.734375 C3.28044596 13.14309369 4.41455601 14.36611725 6 17 C6.5625 19.4375 6.5625 19.4375 6 22 C3.39241337 25.0087538 1.71655255 26.64506222 -2.19140625 27.453125 C-7.51602333 27.70539112 -10.92866519 26.65376201 -15 23 C-15 22.01 -15 21.02 -15 20 C-12.6875 19.375 -12.6875 19.375 -10 19 C-9.01 19.66 -8.02 20.32 -7 21 C-4.66800612 21.07905064 -2.33167378 21.08798769 0 21 C-0.33 20.01 -0.66 19.02 -1 18 C-3.22550395 16.86186843 -3.22550395 16.86186843 -5.875 16 C-9.27254352 14.81135504 -11.78447466 13.91818386 -14 11 C-14.48258091 7.20829285 -14.51879045 4.91967398 -12.625 1.5625 C-8.54398914 -0.86667313 -4.62845501 -0.62809406 0 0 Z " fill="#0B7FB1" transform="translate(241,324)"/>
<path d="M0 0 C2 1.125 2 1.125 3 3 C3.42478586 7.07794425 3.31282587 8.53076119 1 12 C1.495 12.37125 1.99 12.7425 2.5 13.125 C4 15 4 15 4.5 17.9375 C4 21 4 21 1.875 23.375 C-1.53581425 25.30285153 -3.14812602 25.72222637 -7 25 C-9.9375 22.875 -9.9375 22.875 -12 20 C-11.92093582 16.04679076 -11.20236257 14.30354385 -9 11 C-9.66 10.01 -10.32 9.02 -11 8 C-11.34507474 5.23940207 -11.35198412 3.63797122 -10 1.1875 C-6.80027569 -0.71233631 -3.62028416 -0.54304262 0 0 Z " fill="#DEECF2" transform="translate(254,136)"/>
<path d="M0 0 C2.5 1.625 2.5 1.625 4 4 C3.75 7.0625 3.75 7.0625 3 10 C2.7226499 13.18490007 2.7226499 13.18490007 5 16 C4.9375 19 4.9375 19 4 22 C0.99296314 24.74171008 -0.54357633 25.01573875 -4.625 24.875 C-8 24 -8 24 -9.9375 22.8125 C-11.54073557 20.07756873 -11.38077478 18.1096607 -11 15 C-9.5 12.625 -9.5 12.625 -8 11 C-8.66 10.34 -9.32 9.68 -10 9 C-10.3267107 5.92891945 -10.48138276 3.84949899 -8.9375 1.125 C-5.84902396 -0.66830867 -3.48856031 -0.42841969 0 0 Z " fill="#E8F2F6" transform="translate(215,136)"/>
<path d="M0 0 C3.4375 0.375 3.4375 0.375 6.4375 1.375 C6.1075 2.695 5.7775 4.015 5.4375 5.375 C3.4575 5.705 1.4775 6.035 -0.5625 6.375 C-0.8925 8.025 -1.2225 9.675 -1.5625 11.375 C0.7475 11.375 3.0575 11.375 5.4375 11.375 C5.4375 13.025 5.4375 14.675 5.4375 16.375 C3.1275 16.375 0.8175 16.375 -1.5625 16.375 C-1.5625 23.635 -1.5625 30.895 -1.5625 38.375 C-3.5425 38.375 -5.5225 38.375 -7.5625 38.375 C-7.5625 31.115 -7.5625 23.855 -7.5625 16.375 C-8.8825 16.375 -10.2025 16.375 -11.5625 16.375 C-11.5625 14.725 -11.5625 13.075 -11.5625 11.375 C-10.2425 11.375 -8.9225 11.375 -7.5625 11.375 C-7.645 10.488125 -7.7275 9.60125 -7.8125 8.6875 C-7.39894181 3.20785401 -5.5687541 0.58618464 0 0 Z " fill="#0F81B1" transform="translate(370.5625,312.625)"/>
<path d="M0 0 C1.98 0 3.96 0 6 0 C6 10.56 6 21.12 6 32 C11.61 32 17.22 32 23 32 C23 33.65 23 35.3 23 37 C15.41 37 7.82 37 0 37 C0 24.79 0 12.58 0 0 Z " fill="#087FAF" transform="translate(96,366)"/>
<path d="M0 0 C1.98 0 3.96 0 6 0 C6 2.64 6 5.28 6 8 C8.31 8 10.62 8 13 8 C13 9.98 13 11.96 13 14 C10.69 14 8.38 14 6 14 C6.33 18.95 6.66 23.9 7 29 C8.65 29 10.3 29 12 29 C12.38218767 30.65614657 12.71395102 32.32457024 13 34 C11.1496801 35.8503199 8.57527918 35.29140132 6.10546875 35.42578125 C2.86757701 34.77099424 1.86897092 33.72644978 0 31 C-0.48224781 27.90047884 -0.37703463 24.87700629 -0.25 21.75 C-0.23195313 20.90953125 -0.21390625 20.0690625 -0.1953125 19.203125 C-0.14830798 17.13492605 -0.07656724 15.06731559 0 13 C-1.65 13 -3.3 13 -5 13 C-5 11.35 -5 9.7 -5 8 C-3.35 8 -1.7 8 0 8 C0 5.36 0 2.72 0 0 Z " fill="#1885B5" transform="translate(268,316)"/>
<path d="M0 0 C1.98 0 3.96 0 6 0 C8.31 5.61 10.62 11.22 13 17 C15.77133082 13.30489223 17.10722923 10.52100207 18.6875 6.25 C19.34298828 4.49429687 19.34298828 4.49429687 20.01171875 2.703125 C20.33785156 1.81109375 20.66398437 0.9190625 21 0 C22.98 0 24.96 0 27 0 C25.20940981 5.61594195 23.20579188 11.09903458 20.984375 16.55859375 C19.59054398 20.01551592 18.29451244 23.5048164 17 27 C14.69 27 12.38 27 10 27 C9.09545484 24.73863709 8.19136901 22.47710143 7.2890625 20.21484375 C6.3324124 17.82901639 5.36852878 15.44675477 4.3984375 13.06640625 C4.12596191 12.39424072 3.85348633 11.7220752 3.57275391 11.02954102 C3.02828741 9.6864698 2.48112539 8.34448787 1.93115234 7.00366211 C0 2.22545719 0 2.22545719 0 0 Z " fill="#1484B2" transform="translate(147,324)"/>
<path d="M0 0 C5.06711299 4.24210136 9.81223371 8.67717089 14.46484375 13.3671875 C15.14301651 14.04677521 15.82118927 14.72636292 16.51991272 15.42654419 C18.66149141 17.57367002 20.79954529 19.72426627 22.9375 21.875 C24.39885589 23.34137773 25.86044226 24.8075258 27.32226562 26.2734375 C30.88417935 29.84631 34.44293865 33.42229684 38 37 C37.67 37.99 37.34 38.98 37 40 C33.93731967 38.629199 31.79800643 37.06190578 29.40893555 34.71533203 C28.72530441 34.04768829 28.04167328 33.38004456 27.33732605 32.69216919 C26.61112564 31.97133148 25.88492523 31.25049377 25.13671875 30.5078125 C24.38534134 29.76546356 23.63396393 29.02311462 22.8598175 28.25827026 C21.27613773 26.68908243 19.69524161 25.11708096 18.11694336 23.54248047 C15.69124315 21.12872472 13.24752137 18.73424557 10.80273438 16.33984375 C9.26708376 14.81365164 7.7325396 13.28634524 6.19921875 11.7578125 C5.46289719 11.04102325 4.72657562 10.32423401 3.96794128 9.58572388 C3.30007095 8.91177582 2.63220062 8.23782776 1.9440918 7.54345703 C1.34992966 6.95436554 0.75576752 6.36527405 0.14360046 5.7583313 C-1 4 -1 4 -0.68400574 1.77853394 C-0.45828384 1.19161774 -0.23256195 0.60470154 0 0 Z " fill="#1783B2" transform="translate(174,63)"/>
<path d="M0 0 C-0.19140625 1.84375 -0.19140625 1.84375 -1 4 C-3.15234375 5.34375 -3.15234375 5.34375 -5.9375 6.5 C-6.94167969 6.92410156 -7.94585937 7.34820312 -8.98046875 7.78515625 C-9.97691406 8.18605469 -10.97335937 8.58695313 -12 9 C-12.80050781 9.32871094 -13.60101563 9.65742187 -14.42578125 9.99609375 C-16.94349798 11.01587481 -19.47135969 12.00761463 -22 13 C-23.84667759 13.73747189 -25.69331392 14.47504979 -27.5390625 15.21484375 C-28.84051845 15.73594464 -30.14259805 16.25549079 -31.4453125 16.7734375 C-34.33577296 17.92372279 -37.21509385 19.09144218 -40.078125 20.30859375 C-40.95984375 20.68113281 -41.8415625 21.05367187 -42.75 21.4375 C-43.50796875 21.76621094 -44.2659375 22.09492187 -45.046875 22.43359375 C-47 23 -47 23 -50 22 C-49 19 -49 19 -46.80029297 17.83081055 C-45.83236816 17.45738525 -44.86444336 17.08395996 -43.8671875 16.69921875 C-42.77889648 16.26915527 -41.69060547 15.8390918 -40.56933594 15.39599609 C-39.39145508 14.93531738 -38.21357422 14.47463867 -37 14 C-34.56264137 12.99108524 -32.12796856 11.97709098 -29.6953125 10.95703125 C-28.4403157 10.435038 -27.18510572 9.91355702 -25.9296875 9.39257812 C-24.01383619 8.59726787 -22.09825313 7.80134986 -20.18359375 7.00317383 C-18.29248551 6.21497329 -16.40026758 5.4294916 -14.5078125 4.64453125 C-13.40066895 4.18409424 -12.29352539 3.72365723 -11.15283203 3.24926758 C-2.95251124 0 -2.95251124 0 0 0 Z " fill="#1D86B5" transform="translate(289,86)"/>
<path d="M0 0 C11.92086709 3.83170728 23.55594732 8.17570906 34.87109375 13.54296875 C39.84539633 15.85934186 44.91887256 17.93092829 50 20 C49.505 21.485 49.505 21.485 49 23 C44.76541401 22.43356805 41.28751749 21.43618596 37.40234375 19.671875 C36.35925049 19.20394531 35.31615723 18.73601562 34.24145508 18.25390625 C33.1511499 17.75761719 32.06084473 17.26132813 30.9375 16.75 C23.20800233 13.28322811 15.51843873 9.88503581 7.55078125 7 C4.60039172 5.84333887 1.81557711 4.45107341 -1 3 C-0.67 2.01 -0.34 1.02 0 0 Z " fill="#1A85B3" transform="translate(158,86)"/>
<path d="M0 0 C0.66 0.33 1.32 0.66 2 1 C0.73383824 4.6339297 -0.61652087 6.98744842 -3.34814453 9.6887207 C-4.02869904 10.36904861 -4.70925354 11.04937653 -5.41043091 11.75032043 C-6.14381683 12.4682225 -6.87720276 13.18612457 -7.6328125 13.92578125 C-8.76056595 15.04716743 -8.76056595 15.04716743 -9.91110229 16.19120789 C-12.30877412 18.57211702 -14.71667697 20.94237 -17.125 23.3125 C-18.75459219 24.92704233 -20.3835067 26.54226897 -22.01171875 28.15820312 C-25.99998937 32.11343638 -29.99670609 36.0599764 -34 40 C-34.99 39.67 -35.98 39.34 -37 39 C-35.60919475 35.86261846 -33.98977796 33.74524719 -31.56005859 31.33300781 C-30.85948334 30.63258362 -30.15890808 29.93215942 -29.43710327 29.21051025 C-28.68184357 28.46557312 -27.92658386 27.72063599 -27.1484375 26.953125 C-26.37440582 26.18192322 -25.60037415 25.41072144 -24.80288696 24.6161499 C-22.33158077 22.15603144 -19.85340817 19.70296152 -17.375 17.25 C-15.69745948 15.58249106 -14.02037055 13.91452768 -12.34375 12.24609375 C-8.23439081 8.1587763 -4.11937353 4.07722304 0 0 Z " fill="#1684B3" transform="translate(272,63)"/>
<path d="M0 0 C1.65 0 3.3 0 5 0 C5 1.32 5 2.64 5 4 C5.66 4 6.32 4 7 4 C7.33 3.01 7.66 2.02 8 1 C11.465 0.505 11.465 0.505 15 0 C15 1.98 15 3.96 15 6 C12.36 6.33 9.72 6.66 7 7 C5.76240177 10.71279469 5.64391103 14.31306346 5.4375 18.1875 C5.39431641 18.93708984 5.35113281 19.68667969 5.30664062 20.45898438 C5.20077315 22.30578375 5.0999024 24.15286834 5 26 C3.35 26 1.7 26 0 26 C0 17.42 0 8.84 0 0 Z " fill="#097FAF" transform="translate(307,377)"/>
<path d="M0 0 C3.37368696 0.98143621 4.39287789 1.31452618 6.4375 4 C6.8359375 6.15625 6.8359375 6.15625 6.8125 8.5 C6.82023437 9.2734375 6.82796875 10.046875 6.8359375 10.84375 C6.34186939 13.51753038 5.61055273 14.39906739 3.4375 16 C-0.45754791 16.49573337 -2.65743717 16.58016848 -6 14.4375 C-8.17598954 11.04295632 -8.11877159 8.9634351 -7.5625 5 C-5.43590667 0.91694081 -4.67932703 0 0 0 Z " fill="#F4F9FB" transform="translate(341.5625,329)"/>
<path d="M0 0 C0.66 0 1.32 0 2 0 C5.03926605 6.46852641 7.8589587 12.99690413 10.47143555 19.6496582 C12.06789158 23.70509364 13.72147382 27.73134147 15.41796875 31.74609375 C15.83401367 32.73826904 16.25005859 33.73044434 16.67871094 34.75268555 C17.50911466 36.72996764 18.34685764 38.70418557 19.19238281 40.67504883 C19.57104492 41.58150146 19.94970703 42.4879541 20.33984375 43.421875 C20.68394287 44.23237305 21.02804199 45.04287109 21.38256836 45.87792969 C22 48 22 48 21 51 C20.34 51 19.68 51 19 51 C15.62035432 44.77905929 12.9367844 38.40506827 10.52856445 31.7590332 C8.98021432 27.52115798 7.32914206 23.34393107 5.58203125 19.18359375 C4.95796387 17.69424316 4.95796387 17.69424316 4.32128906 16.17480469 C3.49113911 14.20472811 2.65340547 12.23782763 1.80761719 10.27441406 C1.42895508 9.37303711 1.05029297 8.47166016 0.66015625 7.54296875 C0.31605713 6.73883545 -0.02804199 5.93470215 -0.38256836 5.10620117 C-1 3 -1 3 0 0 Z " fill="#1B86B3" transform="translate(196,48)"/>
<path d="M0 0 C1.65 0 3.3 0 5 0 C5 1.32 5 2.64 5 4 C5.9075 3.34 6.815 2.68 7.75 2 C11 0 11 0 15 0 C15 1.98 15 3.96 15 6 C13.329375 6.4021875 13.329375 6.4021875 11.625 6.8125 C7.78159049 7.65809019 7.78159049 7.65809019 6 11 C5.70008931 13.58885171 5.49134775 16.09149082 5.375 18.6875 C5.33632812 19.38939453 5.29765625 20.09128906 5.2578125 20.81445312 C5.1637666 22.54254655 5.0808032 24.27123675 5 26 C3.35 26 1.7 26 0 26 C0 17.42 0 8.84 0 0 Z " fill="#0C81AF" transform="translate(208,324)"/>
<path d="M0 0 C0.99 0.33 1.98 0.66 3 1 C-0.33863694 11.20578591 -4.06977914 21.26183332 -8.6328125 30.984375 C-11.61857933 37.57012354 -14.27560758 44.30286244 -17 51 C-17.99 50.67 -18.98 50.34 -20 50 C-19.28209669 45.09268834 -17.42494645 40.74768553 -15.5625 36.1875 C-15.04320923 34.9039563 -15.04320923 34.9039563 -14.51342773 33.59448242 C-13.34924209 30.72676074 -12.1759559 27.86291471 -11 25 C-10.55785156 23.92266602 -10.11570313 22.84533203 -9.66015625 21.73535156 C-8.29892597 18.42578815 -6.93216554 15.11858069 -5.5625 11.8125 C-5.12558838 10.75506592 -4.68867676 9.69763184 -4.23852539 8.6081543 C-3.83110107 7.63015869 -3.42367676 6.65216309 -3.00390625 5.64453125 C-2.64111572 4.77159424 -2.2783252 3.89865723 -1.90454102 2.99926758 C-1 1 -1 1 0 0 Z " fill="#1D87B4" transform="translate(249,48)"/>
<path d="M0 0 C1.98 0 3.96 0 6 0 C6 8.91 6 17.82 6 27 C4.02 27 2.04 27 0 27 C0 18.09 0 9.18 0 0 Z " fill="#1884B4" transform="translate(252,324)"/>
<path d="M0 0 C0.99 0 1.98 0 3 0 C3 17.82 3 35.64 3 54 C2.01 54 1.02 54 0 54 C0 36.18 0 18.36 0 0 Z " fill="#0179AE" transform="translate(222,43)"/>
<path d="M0 0 C3.625 0.3125 3.625 0.3125 6.0625 1.375 C7.625 3.3125 7.625 3.3125 8.3125 6.5 C7.35731894 11.79691315 4.60378648 14.79467049 0.625 18.3125 C-1.609375 19.54296875 -1.609375 19.54296875 -3.375 20.3125 C-3.375 20.9725 -3.375 21.6325 -3.375 22.3125 C0.255 22.3125 3.885 22.3125 7.625 22.3125 C7.625 22.9725 7.625 23.6325 7.625 24.3125 C2.675 24.3125 -2.275 24.3125 -7.375 24.3125 C-5.99742 18.80217998 -2.67319004 16.65505995 1.47265625 12.9453125 C3.92431057 10.44655481 3.92431057 10.44655481 3.93359375 6.9921875 C3.83175781 6.10789063 3.72992188 5.22359375 3.625 4.3125 C1.645 4.3125 -0.335 4.3125 -2.375 4.3125 C-2.705 4.9725 -3.035 5.6325 -3.375 6.3125 C-4.365 6.3125 -5.355 6.3125 -6.375 6.3125 C-5.50050019 1.94000095 -4.73145162 0.43809737 0 0 Z " fill="#EBF3F7" transform="translate(230.375,135.6875)"/>
<path d="M0 0 C1.65 0 3.3 0 5 0 C5 8.58 5 17.16 5 26 C3.35 26 1.7 26 0 26 C0 17.42 0 8.84 0 0 Z " fill="#017BAD" transform="translate(294,377)"/>
<path d="M0 0 C1.65 0 3.3 0 5 0 C5 8.58 5 17.16 5 26 C3.35 26 1.7 26 0 26 C0 17.42 0 8.84 0 0 Z " fill="#037CAE" transform="translate(137,324)"/>
<path d="M0 0 C0 8.25 0 16.5 0 25 C-0.99 25 -1.98 25 -3 25 C-3.33 18.73 -3.66 12.46 -4 6 C-5.65 6.33 -7.3 6.66 -9 7 C-7.51191431 2.53574293 -4.79253508 0 0 0 Z " fill="#E2EFF4" transform="translate(198,136)"/>
<path d="M0 0 C0.99 0 1.98 0 3 0 C3 0.66 3 1.32 3 2 C4.32 2.33 5.64 2.66 7 3 C6.38125 3.28875 5.7625 3.5775 5.125 3.875 C2.86674235 4.93720042 2.86674235 4.93720042 1 7 C1.32041397 9.60280568 1.32041397 9.60280568 2 12 C3.98 12 5.96 12 8 12 C8.66 10.35 9.32 8.7 10 7 C10.66 7 11.32 7 12 7 C12.25 9.8125 12.25 9.8125 12 13 C9.81399622 15.52231206 8.34541543 15.94120588 5.0625 16.5 C2 16 2 16 -0.9375 13.875 C-3 11 -3 11 -2.9375 7.875 C-2 5 -2 5 0 2 C0 1.34 0 0.68 0 0 Z " fill="#DEECF3" transform="translate(245,145)"/>
<path d="M0 0 C6.27 0 12.54 0 19 0 C19 0.33 19 0.66 19 1 C18.2575 1.061875 17.515 1.12375 16.75 1.1875 C13.76217372 1.76344058 13.76217372 1.76344058 12.125 4.625 C11.42375 5.40875 10.7225 6.1925 10 7 C6.37402825 7 4.04748827 6.74337877 1.0625 4.625 C0 3 0 3 0 0 Z " fill="#F0F6F9" transform="translate(183,339)"/>
<path d="M0 0 C3.29714793 0.32971479 4.6226839 0.6226839 7 3 C6.44444444 7.55555556 6.44444444 7.55555556 5 9 C2.0625 9.1875 2.0625 9.1875 -1 9 C-1.66 8.34 -2.32 7.68 -3 7 C-2.67028521 3.70285207 -2.3773161 2.3773161 0 0 Z " fill="#1382B3" transform="translate(248,149)"/>
<path d="M0 0 C2.5 0.25 2.5 0.25 4.5 2.25 C4.75 4.75 4.75 4.75 4.5 7.25 C2.5 9.25 2.5 9.25 0 9.5 C-2.5 9.25 -2.5 9.25 -4.5 7.25 C-4.75 4.75 -4.75 4.75 -4.5 2.25 C-2.5 0.25 -2.5 0.25 0 0 Z " fill="#0C7FB0" transform="translate(211.5,148.75)"/>
<path d="M0 0 C1.23556641 0.01740234 1.23556641 0.01740234 2.49609375 0.03515625 C3.32238281 0.04417969 4.14867187 0.05320312 5 0.0625 C5.63808594 0.07410156 6.27617187 0.08570313 6.93359375 0.09765625 C6.62109375 2.47265625 6.62109375 2.47265625 5.93359375 5.09765625 C2.70985698 7.2468141 1.66655701 7.48052428 -2.06640625 7.09765625 C-2.72640625 6.43765625 -3.38640625 5.77765625 -4.06640625 5.09765625 C-3.31779097 0.15679541 -3.31779097 0.15679541 0 0 Z " fill="#EEF5F9" transform="translate(219.06640625,391.90234375)"/>
<path d="M0 0 C1.23556641 0.01740234 1.23556641 0.01740234 2.49609375 0.03515625 C3.32238281 0.04417969 4.14867187 0.05320312 5 0.0625 C5.63808594 0.07410156 6.27617187 0.08570313 6.93359375 0.09765625 C6.62109375 2.47265625 6.62109375 2.47265625 5.93359375 5.09765625 C2.70985698 7.2468141 1.66655701 7.48052428 -2.06640625 7.09765625 C-2.72640625 6.43765625 -3.38640625 5.77765625 -4.06640625 5.09765625 C-3.31779097 0.15679541 -3.31779097 0.15679541 0 0 Z " fill="#EFF6F9" transform="translate(132.06640625,391.90234375)"/>
<path d="M0 0 C3.625 0.3125 3.625 0.3125 6.0625 1.375 C8.39143994 4.26288552 7.89550795 6.72826962 7.625 10.3125 C6.635 10.3125 5.645 10.3125 4.625 10.3125 C4.295 8.3325 3.965 6.3525 3.625 4.3125 C1.645 4.3125 -0.335 4.3125 -2.375 4.3125 C-2.705 4.9725 -3.035 5.6325 -3.375 6.3125 C-4.365 6.3125 -5.355 6.3125 -6.375 6.3125 C-5.50050019 1.94000095 -4.73145162 0.43809737 0 0 Z " fill="#E3EFF4" transform="translate(230.375,135.6875)"/>
<path d="M0 0 C6.46153846 0.46153846 6.46153846 0.46153846 9 3 C9 3.99 9 4.98 9 6 C5.04 6 1.08 6 -3 6 C-2 2 -2 2 0 0 Z " fill="#D8E9F1" transform="translate(335,381)"/>
<path d="M0 0 C3.5625 -0.4375 3.5625 -0.4375 7 0 C9 2 9 2 9 5 C5.04 5 1.08 5 -3 5 C-2.01 3.35 -1.02 1.7 0 0 Z " fill="#EEF5F9" transform="translate(186,329)"/>
<path d="M0 0 C1.2065625 0.0309375 1.2065625 0.0309375 2.4375 0.0625 C3.0625 2.4375 3.0625 2.4375 3.4375 5.0625 C2.7775 5.7225 2.1175 6.3825 1.4375 7.0625 C-1.1875 6.6875 -1.1875 6.6875 -3.5625 6.0625 C-3.605221 4.39638095 -3.60313832 2.72867115 -3.5625 1.0625 C-2.5625 0.0625 -2.5625 0.0625 0 0 Z " fill="#1182B1" transform="translate(211.5625,138.9375)"/>
<path d="M0 0 C2.125 0.375 2.125 0.375 4 1 C4.38218767 2.65614657 4.71395102 4.32457024 5 6 C4 7 4 7 1.4375 7.0625 C0.2309375 7.0315625 0.2309375 7.0315625 -1 7 C-1.625 4.625 -1.625 4.625 -2 2 C-1.34 1.34 -0.68 0.68 0 0 Z " fill="#2289B6" transform="translate(138,312)"/>
<path d="M0 0 C1.67542976 0.28604898 3.34385343 0.61781233 5 1 C5 2.65 5 4.3 5 6 C2.625 6.625 2.625 6.625 0 7 C-0.66 6.34 -1.32 5.68 -2 5 C-1.46428571 1.46428571 -1.46428571 1.46428571 0 0 Z " fill="#0B7EAF" transform="translate(248,139)"/>
<path d="M0 0 C1.5625 1.8125 1.5625 1.8125 3 4 C2.67 4.99 2.34 5.98 2 7 C2.495 7.37125 2.99 7.7425 3.5 8.125 C5.59755514 10.74694393 5.21743835 12.73842472 5 16 C4.67 16 4.34 16 4 16 C4 14.35 4 12.7 4 11 C3.071875 10.8453125 3.071875 10.8453125 2.125 10.6875 C0 10 0 10 -2 7 C-2.99 6.34 -3.98 5.68 -5 5 C-3.68 4.67 -2.36 4.34 -1 4 C-0.67 2.68 -0.34 1.36 0 0 Z " fill="#CFE3ED" transform="translate(253,141)"/>
<path d="M0 0 C1.65 0.33 3.3 0.66 5 1 C5.625 2.875 5.625 2.875 6 5 C5.34 5.66 4.68 6.32 4 7 C1.875 6.625 1.875 6.625 0 6 C-1.125 2.25 -1.125 2.25 0 0 Z " fill="#1784B2" transform="translate(294,365)"/>
<path d="M0 0 C0 2.31 0 4.62 0 7 C-1.98 7 -3.96 7 -6 7 C-6 5.35 -6 3.7 -6 2 C-2.25 0 -2.25 0 0 0 Z " fill="#C12D32" transform="translate(204,254)"/>
<path d="M0 0 C2.475 0.99 2.475 0.99 5 2 C4.34 3.65 3.68 5.3 3 7 C0.69 6.67 -1.62 6.34 -4 6 C-2.84826645 3.53199953 -1.95216435 1.95216435 0 0 Z " fill="#C12A2F" transform="translate(258,212)"/>
<path d="M0 0 C1.98 0.66 3.96 1.32 6 2 C6 3.98 6 5.96 6 8 C4.35 8 2.7 8 1 8 C0.67 5.36 0.34 2.72 0 0 Z " fill="#BF1D24" transform="translate(242,253)"/>
<path d="M0 0 C3.875 1.75 3.875 1.75 5 4 C3.68 5.65 2.36 7.3 1 9 C-0.625 6.75 -0.625 6.75 -2 4 C-1.1875 1.6875 -1.1875 1.6875 0 0 Z " fill="#BE1B24" transform="translate(222,186)"/>
<path d="M0 0 C0.33 0 0.66 0 1 0 C0.49202991 4.3177458 -0.19682779 8.03302114 -2 12 C-2.99 11.67 -3.98 11.34 -5 11 C-4.46939601 6.48986609 -2.69113883 3.61621781 0 0 Z " fill="#0F80B0" transform="translate(234,87)"/>
<path d="M0 0 C0.66 0.66 1.32 1.32 2 2 C1.875 5 1.875 5 1 8 C-0.75 9.4375 -0.75 9.4375 -3 10 C-5.75 9.625 -5.75 9.625 -8 9 C-7.38125 8.773125 -6.7625 8.54625 -6.125 8.3125 C-3.36681217 6.6089134 -3.05034149 5.00097569 -2 2 C-1.34 1.34 -0.68 0.68 0 0 Z " fill="#C6DEEA" transform="translate(218,150)"/>
<path d="M0 0 C1.65 0.33 3.3 0.66 5 1 C4.67 2.65 4.34 4.3 4 6 C2.35 5.67 0.7 5.34 -1 5 C-0.67 3.35 -0.34 1.7 0 0 Z " fill="#087CAF" transform="translate(253,313)"/>
<path d="M0 0 C1.625 2.5 1.625 2.5 3 5 C1.02 5.66 -0.96 6.32 -3 7 C-3.66 5.35 -4.32 3.7 -5 2 C-2 0 -2 0 0 0 Z " fill="#BD161E" transform="translate(189,212)"/>
<path d="M0 0 C-0.33 1.32 -0.66 2.64 -1 4 C-3.31 4.66 -5.62 5.32 -8 6 C-8 4.68 -8 3.36 -8 2 C-2.25 0 -2.25 0 0 0 Z " fill="#1280B2" transform="translate(248,103)"/>
<path d="M0 0 C4.29 0.33 8.58 0.66 13 1 C13 1.66 13 2.32 13 3 C8.38 3 3.76 3 -1 3 C-0.67 2.01 -0.34 1.02 0 0 Z " fill="#FEFEFE" transform="translate(225,157)"/>
<path d="M0 0 C1.6875 1.51953125 1.6875 1.51953125 3 3 C1.56465159 3.2226746 0.12654475 3.42761906 -1.3125 3.625 C-2.11300781 3.74101562 -2.91351563 3.85703125 -3.73828125 3.9765625 C-6 4 -6 4 -9 2 C-5.53076119 -0.31282587 -4.07794425 -0.42478586 0 0 Z " fill="#EDC8C9" transform="translate(226,239)"/>
<path d="M0 0 C-1 3 -1 3 -2.875 4.1875 C-5 5 -5 5 -8 5 C-8.33 4.01 -8.66 3.02 -9 2 C-5.62902617 0.50178941 -3.79557881 0 0 0 Z " fill="#0F80B0" transform="translate(276,92)"/>
<path d="M0 0 C0.66 0 1.32 0 2 0 C2.125 2.875 2.125 2.875 2 6 C0 8 0 8 -3.625 8.125 C-4.73875 8.08375 -5.8525 8.0425 -7 8 C-6.38125 7.71125 -5.7625 7.4225 -5.125 7.125 C-2.86674235 6.06279958 -2.86674235 6.06279958 -1 4 C-0.3574765 1.93125966 -0.3574765 1.93125966 0 0 Z " fill="#F2F7FA" transform="translate(255,152)"/>
<path d="M0 0 C1.32 0 2.64 0 4 0 C4 0.66 4 1.32 4 2 C5.32 2.33 6.64 2.66 8 3 C8 4.98 8 6.96 8 9 C7.4225 8.21625 6.845 7.4325 6.25 6.625 C4.17102363 4.19952756 2.90959667 3.14305583 0 2 C0 1.34 0 0.68 0 0 Z " fill="#EAF3F7" transform="translate(210,146)"/>
<path d="M0 0 C0.66 0 1.32 0 2 0 C1.75 2.875 1.75 2.875 1 6 C-1.0625 7.375 -1.0625 7.375 -3 8 C-3.33 7.01 -3.66 6.02 -4 5 C-3.01 4.67 -2.02 4.34 -1 4 C-0.26676204 1.98491642 -0.26676204 1.98491642 0 0 Z " fill="#D4E6EF" transform="translate(217,140)"/>
<path d="M0 0 C1.65 0 3.3 0 5 0 C5.66 1.32 6.32 2.64 7 4 C6.01 4.33 5.02 4.66 4 5 C1.3125 3.5625 1.3125 3.5625 -1 2 C-0.67 1.34 -0.34 0.68 0 0 Z " fill="#2389B5" transform="translate(178,95)"/>
<path d="M0 0 C0.99 0.33 1.98 0.66 3 1 C2.25 3.9375 2.25 3.9375 1 7 C-1.125 7.875 -1.125 7.875 -3 8 C-2.45276317 4.62537285 -1.9451 2.91765 0 0 Z " fill="#2088B5" transform="translate(249,48)"/>
<path d="M0 0 C0.66 0.33 1.32 0.66 2 1 C0.625 3.5 0.625 3.5 -1 6 C-1.66 6 -2.32 6 -3 6 C-3.33 6.66 -3.66 7.32 -4 8 C-4 7.34 -4 6.68 -4 6 C-4.66 5.67 -5.32 5.34 -6 5 C-4.02 3.35 -2.04 1.7 0 0 Z " fill="#F5DFE0" transform="translate(217,213)"/>
<path d="M0 0 C0.33 0.99 0.66 1.98 1 3 C-1.64738916 4.4606285 -2.89448334 5 -6 5 C-6 3.68 -6 2.36 -6 1 C-4 0 -4 0 0 0 Z " fill="#2B8EB9" transform="translate(268,95)"/>
<path d="M0 0 C0 0.66 0 1.32 0 2 C-0.763125 2.28875 -1.52625 2.5775 -2.3125 2.875 C-5.15029308 3.96269013 -5.15029308 3.96269013 -8 6 C-8 3 -8 3 -6.8125 1.3125 C-4.44258278 -0.40364695 -2.85974334 -0.23187108 0 0 Z " fill="#C22830" transform="translate(235,192)"/>
<path d="M0 0 C2.64 0 5.28 0 8 0 C8.33 0.99 8.66 1.98 9 3 C7.5625 5.1875 7.5625 5.1875 6 7 C5.7525 6.21625 5.505 5.4325 5.25 4.625 C3.84610901 1.67682892 2.99324263 1.0975223 0 0 Z " fill="#EEF5F9" transform="translate(209,137)"/>
<path d="M0 0 C0 0.66 0 1.32 0 2 C-3 3 -6 4 -9 5 C-6.81610567 0.16423399 -5.20641855 -0.13701101 0 0 Z " fill="#C22C32" transform="translate(217,192)"/>
<path d="M0 0 C1.134375 0.020625 2.26875 0.04125 3.4375 0.0625 C0.61196016 4.30080976 -1.68430888 4.03965348 -6.5625 5.0625 C-4.14811644 0.07277397 -4.14811644 0.07277397 0 0 Z " fill="#D2E5EE" transform="translate(211.5625,135.9375)"/>
<path d="M0 0 C1.32 0.33 2.64 0.66 4 1 C3.67 1.99 3.34 2.98 3 4 C1.35 4 -0.3 4 -2 4 C-1.34 2.68 -0.68 1.36 0 0 Z " fill="#BE141F" transform="translate(259,213)"/>
<path d="M0 0 C0.33 0 0.66 0 1 0 C1 2.31 1 4.62 1 7 C-0.32 6.67 -1.64 6.34 -3 6 C-2 4 -1 2 0 0 Z " fill="#BC121A" transform="translate(203,254)"/>
<path d="M0 0 C1.32 0.33 2.64 0.66 4 1 C3.67 1.99 3.34 2.98 3 4 C0.03 3.67 -2.94 3.34 -6 3 C-6 2.67 -6 2.34 -6 2 C-4.02 1.67 -2.04 1.34 0 1 C0 0.67 0 0.34 0 0 Z " fill="#EBC0C4" transform="translate(227,213)"/>
</svg>
