<?xml version="1.0" encoding="UTF-8"?>
<svg id="Layer_2" xmlns="http://www.w3.org/2000/svg" version="1.1" viewBox="0 0 580.1 189.7">
  <!-- Generator: Adobe Illustrator 29.0.1, SVG Export Plug-In . SVG Version: 2.1.0 Build 192)  -->
  <defs>
    <style>
      .st0 {
        fill: #067faf;
      }

      .st1 {
        fill: #bc2126;
      }

      .st2 {
        fill: #fff;
      }

      .st3 {
        fill: #007fb0;
      }
    </style>
  </defs>
  <g id="Layer_1-2">
    <g>
      <path class="st0" d="M64.3,47.4l37.5-15.5,1,2.4-37.5,15.5-1-2.4ZM61.1,43.5l28.7-28.7,1.8,1.8-28.7,28.7-1.8-1.8ZM56.6,41.1L72.2,3.6l2.4,1-15.5,37.5s-2.4-1-2.4-1ZM51.6,0h2.6v40.6h-2.6V0ZM31.1,4.6l2.4-1,15.5,37.5-2.4,1L31.1,4.6ZM14.1,16.6l1.8-1.8,28.7,28.7-1.8,1.8L14.1,16.6ZM2.9,34.3l1-2.4,37.5,15.6-1,2.4L2.9,34.3Z"/>
      <g>
        <path class="st0" d="M63.2,55.3c-2.9,0-5.6,1.2-7.6,3.2l-2.7,3-2.8-3c-2-2-4.7-3.1-7.6-3.1H0v79.4c0,11.2,8.8,23.9,26.2,37.6,8.1,6.4,16.8,12.1,25.8,17.1.5.3,1.2.3,1.7,0,2.1-1.1,52-28.1,52-55.1V55.3s-42.5,0-42.5,0Z"/>
        <path class="st2" d="M3.6,123.1v11.5c0,4.8,2,10.2,5.9,15.8,5.4,7.2,11.7,13.6,18.9,19,7.7,6,15.9,11.5,24.4,16.3,8.9-5,17.4-10.6,25.4-17,15.6-12.6,23.9-24.4,23.9-34.4v-11.2l-49.3-28.3L3.6,123.1ZM33.8,89.1h-2.1v-15.3h0l-3.2,2.7-1.3-1.5,4.8-3.9h1.9v18.1h0ZM38.9,75.4c0-.7.1-1.3.4-1.9.3-.6.6-1.1,1.1-1.6.5-.4,1-.7,1.6-.9.7-.2,1.3-.3,2-.3s1.4.1,2,.3c.6.2,1.2.5,1.6.9.5.4.8.9,1.1,1.5.3.6.4,1.3.4,1.9,0,.4,0,.9-.2,1.3s-.3.8-.6,1.2c-.3.4-.6.7-.9.9-.4.3-.8.5-1.2.6.5.1,1,.3,1.5.6.4.3.8.6,1.1,1,.3.4.5.9.7,1.4.2.5.3,1.1.3,1.6s-.1,1.5-.5,2.2c-.3.6-.7,1.2-1.2,1.7-.5.5-1.2.8-1.8,1.1-1.5.5-3.1.5-4.6,0-.7-.2-1.3-.6-1.8-1.1-.5-.5-1-1-1.2-1.7-.3-.7-.5-1.4-.5-2.2,0-.6,0-1.1.3-1.6.2-.5.4-1,.7-1.4.3-.4.7-.8,1.1-1,.5-.3,1-.5,1.5-.6-.4-.1-.9-.3-1.2-.6-.3-.3-.7-.6-.9-.9-.2-.4-.4-.8-.6-1.2-.1-.4-.2-.8-.2-1.3M40.5,83.9c0,.5,0,1,.3,1.5.2.4.4.8.8,1.1.3.3.7.6,1.2.7.9.4,1.9.4,2.8,0,.4-.2.8-.4,1.2-.7.3-.4.5-.8.7-1.2.4-.9.4-2,0-2.9-.2-.4-.4-.8-.8-1.1s-.7-.6-1.2-.8c-.9-.3-1.9-.3-2.8,0-.4.2-.8.4-1.2.8-.3.3-.6.7-.8,1.1-.2.5-.3,1-.3,1.5M41,75.5c0,1.6,1.4,2.8,3,2.8,1.6,0,2.8-1.4,2.8-3,0-.6-.2-1.1-.5-1.6s-.8-.8-1.3-1c-.5-.2-1.1-.2-1.6-.1s-1,.4-1.4.8c-.5.6-.9,1.3-.8,2.1h0ZM52.7,86.6l6.8-6.6c.4-.4.8-.8,1.1-1.1.3-.3.6-.7.8-1,.4-.7.7-1.4.6-2.2,0-.8-.3-1.7-.9-2.2-.3-.3-.7-.5-1-.6-.4-.2-.8-.2-1.3-.2-.8,0-1.6.3-2.3.8-.6.6-1,1.3-1.2,2.1l-2.3-.2c.1-.7.3-1.3.7-2,.3-.6.8-1,1.2-1.4.5-.4,1.1-.7,1.7-.9,1.4-.4,2.8-.4,4.2,0,.6.2,1.2.5,1.8.9.5.4.9.9,1.2,1.5.3.7.5,1.4.5,2.1,0,.7,0,1.3-.3,1.9-.2.6-.4,1.1-.8,1.5-.3.5-.7,1-1.1,1.4s-.9.9-1.3,1.3l-5.6,5.2h9.2v2h-11.6v-2.3h0ZM67.8,75.4c0-.7.1-1.3.4-1.9.2-.6.6-1.1,1.1-1.5.5-.4,1-.7,1.6-.9.7-.2,1.3-.3,2-.3s1.4.1,2.1.3c.6.2,1.2.5,1.6.9.5.4.8,1,1.1,1.6s.4,1.2.4,1.9-.3,1.7-.8,2.5c-.3.4-.6.7-.9.9-.4.3-.8.5-1.2.6.5.1,1.1.3,1.5.6.4.3.8.6,1.1,1,.3.4.6.9.7,1.4.2.5.3,1.1.3,1.6s-.1,1.5-.5,2.2c-.3.6-.7,1.2-1.2,1.7-.5.5-1.2.8-1.8,1.1-1.5.5-3.1.5-4.6,0-.7-.2-1.3-.6-1.8-1.1-.5-.5-.9-1-1.2-1.7-.3-.7-.4-1.4-.4-2.2,0-.6,0-1.1.2-1.6.2-.5.4-1,.7-1.4.3-.4.7-.8,1.1-1,.5-.3,1-.5,1.5-.6-.4-.1-.9-.3-1.2-.6-.3-.3-.7-.6-.9-.9-.2-.4-.4-.8-.6-1.2s-.2-.8-.2-1.3M69.4,84c0,.5,0,1,.3,1.5.2.4.5.8.8,1.1.3.3.7.6,1.2.7.7.3,1.4.3,2.1.2s1.4-.5,1.9-.9c.3-.3.6-.7.8-1.1.4-.9.4-2,0-2.9-.2-.4-.4-.8-.8-1.1-.3-.3-.7-.6-1.2-.8-.5-.2-.9-.3-1.4-.3s-1,0-1.4.3c-.4.2-.8.4-1.2.8-.3.3-.6.7-.8,1.1-.2.5-.3,1-.3,1.5M70,75.7c0,1.6,1.4,2.8,3,2.8s2.8-1.4,2.8-3c0-.6-.2-1.1-.5-1.6s-.8-.8-1.3-1c-.5-.2-1.1-.2-1.6-.1s-1.1.4-1.4.8c-.6.6-.9,1.3-.8,2.1h0Z"/>
        <path class="st1" d="M33.7,160.8l.5,4.1,4-.7c0-1.9.2-3.7.5-5.6-1.6.9-3.4,1.7-5.1,2.2ZM26.5,127.6l-3.7,1.8,1.9,3.6c1.8-.6,3.6-1,5.5-1.2-1.4-1.3-2.6-2.7-3.7-4.2h0ZM50,110.5l2.8-3,2.8,3c-1.1,1.5-2,3.1-2.8,4.8-.8-1.7-1.7-3.3-2.8-4.8ZM79.3,127.6l3.7,1.8-2,3.6c-1.8-.6-3.6-1-5.4-1.2,1.4-1.3,2.6-2.7,3.7-4.2M72.1,160.8l-.5,4-4-.7c0-1.9-.2-3.7-.6-5.6,1.6.9,3.3,1.7,5.1,2.2M54.6,128c1.8.3,3.5,1,5,2s2.7,2.5,3.5,4.1l7.9-2.2c1.9-.5,3.5-1.7,4.6-3.4,1.3-2.2.7-4.9-1.3-6.4-1.7-1.5-5.1-1.9-7.9-1.3-.3-2.9-1.7-5.9-3.7-7.1-1-.7-2.2-1-3.4-.9-1.2.1-2.3.7-3.1,1.6-1.2,1.5-1.9,3.4-1.8,5.3l.3,8.2h0ZM34.8,131.9l7.9,2.2c.8-1.6,2-3,3.5-4.1,1.5-1.1,3.2-1.8,5-2l.3-8.2c0-1.9-.6-3.8-1.8-5.3-.8-.9-1.9-1.5-3.1-1.6s-2.4.2-3.4.9c-2,1.2-3.4,4.3-3.7,7.1-2.8-.6-6.1-.2-7.9,1.3-2,1.5-2.6,4.3-1.3,6.4,1,1.6,2.6,2.8,4.5,3.4M58,149.3c-1.6.8-3.4,1.3-5.2,1.3s-3.6-.4-5.2-1.3l-5.1,6.5c-1.2,1.5-1.8,3.4-1.7,5.4.2,2.5,2.3,4.4,4.8,4.4,2.3.2,5.2-1.5,7.2-3.6,1.9,2.1,4.9,3.8,7.2,3.6,2.5,0,4.6-1.9,4.8-4.4.1-1.9-.5-3.9-1.7-5.4l-5.1-6.5h0ZM77.4,134.6c-1.8-.7-3.8-.7-5.6,0l-7.7,2.9c0,.6.1,1.2,0,1.8,0,3-1.2,5.9-3.3,8.1l4.6,6.8c1.1,1.6,2.7,2.8,4.6,3.2,2.4.6,4.9-.8,5.7-3.2.9-2.1.2-5.4-1.2-7.9,2.6-1.2,5.1-3.4,5.6-5.7.8-2.4-.4-5-2.7-6M41.5,139.2c0-.6,0-1.2.2-1.9l-7.7-2.9c-1.8-.7-3.8-.7-5.6,0-1.1.5-2,1.4-2.5,2.4-.5,1.1-.6,2.4-.2,3.5.5,2.2,3,4.6,5.6,5.7-1.4,2.5-2.1,5.8-1.2,7.9.4,1.1,1.2,2.1,2.3,2.7,1.1.6,2.3.8,3.5.5,1.9-.5,3.5-1.6,4.6-3.2l4.6-6.8c-1.1-1.1-1.9-2.3-2.5-3.7s-.9-2.9-.9-4.4M43.9,139.2c0-4.9,4-9,9-9,5,0,9,4,9,8.9,0,4.9-4,9-9,9h0c-5,0-9-4-9-8.9Z"/>
      </g>
    </g>
  </g>
  <g id="UoL-MainLogo--Blue_x5F_RAW">
    <path id="Blue_Text" class="st3" d="M166.3,91c-1.4,2.5-3.4,4.4-6,5.8-2.6,1.4-5.6,2-9.1,2s-6.3-.7-8.9-2c-2.5-1.4-4.5-3.3-5.9-5.8-1.4-2.5-2.1-5.4-2.1-8.7v-27.1h7.1v27.1c0,2,.4,3.7,1.3,5.2.8,1.5,2,2.6,3.5,3.5,1.5.8,3.2,1.3,5.2,1.3s3.8-.4,5.3-1.3c1.5-.8,2.7-2,3.5-3.5.8-1.5,1.2-3.2,1.2-5.2v-27.1h7.1v27.1c0,3.3-.7,6.2-2.1,8.7ZM204.6,98v-17.5c0-4.7-1-8.2-3-10.4-2-2.3-4.9-3.4-8.6-3.4s-4.5.6-6.2,1.8c-1.2.8-2.2,1.9-3,3.2l-.3-4.3h-6.4v30.5h6.8v-15.9c0-2.9.6-5.1,1.9-6.7,1.3-1.5,3-2.3,5.3-2.3,1.3,0,2.5.3,3.5.8,1,.5,1.8,1.5,2.3,2.8.6,1.3.8,3.2.8,5.6v15.6h6.8ZM212.2,98h6.8v-30.5c0,0-6.7,0-6.7,0v30.5ZM215.7,61.6c1.1,0,2-.4,2.8-1.2.8-.8,1.2-1.7,1.2-2.8s-.4-2-1.2-2.8c-.8-.8-1.7-1.2-2.8-1.2s-2,.4-2.8,1.2c-.8.8-1.2,1.7-1.2,2.8s.4,2,1.2,2.8c.8.8,1.7,1.2,2.8,1.2ZM237.3,98h6.4l12.6-30.5h-7.1l-9,23-9-23h-7l12.6,30.5h.5ZM274.1,98.7c-3,0-5.6-.7-7.9-2-2.3-1.4-4.1-3.2-5.4-5.6-1.3-2.4-2-5.2-2-8.3s.7-5.9,2-8.3c1.3-2.4,3.2-4.3,5.5-5.6,2.3-1.4,5-2,8.1-2s5.1.7,7.3,2.1,3.9,3.4,5.2,6.1c1.3,2.6,1.9,5.8,1.9,9.5h-22.8c.1,1.4.5,2.6,1.1,3.7.8,1.4,1.8,2.5,3.1,3.3,1.3.8,2.8,1.1,4.4,1.1s3.3-.4,4.5-1.3c1.2-.8,2.1-1.9,2.7-3.2l6.3,2.7c-.9,1.6-1.9,3.1-3.2,4.3-1.3,1.2-2.9,2.2-4.7,2.8-1.8.7-3.9,1-6.2,1ZM266.9,77.3c-.2.5-.4,1-.5,1.6h14.9c0-.4-.2-.8-.3-1.1-.6-1.7-1.5-3-2.7-3.8-1.2-.8-2.6-1.3-4.2-1.3s-3.2.4-4.4,1.2c-1.2.8-2.1,1.9-2.8,3.4ZM301.6,81.6c0-1.9.5-3.4,1.5-4.5,1-1.1,2.4-2,4-2.5,1.6-.5,3.4-.8,5.3-.8v-6.5c-2.2,0-4.3.5-6.3,1.6-1.8.9-3.3,2.3-4.5,4.1v-5.5h-6.8v30.5h6.8v-16.4ZM338.8,94.4c1-1.4,1.6-3,1.6-4.8s-.3-2.6-.9-3.9c-.6-1.3-1.6-2.4-2.8-3.5-1.3-1-2.9-1.8-4.9-2.3l-3.6-.9c-1.3-.3-2.2-.7-2.9-1.3-.7-.5-1-1.1-1-1.7,0-1,.4-1.8,1.2-2.4.8-.6,1.8-.9,3.2-.9s2.6.3,3.8.8c1.1.5,1.9,1.3,2.3,2.3l5.7-2.6c-.4-1.3-1.2-2.5-2.4-3.5-1.1-1-2.5-1.8-4.1-2.3-1.6-.5-3.3-.8-5.2-.8-3.7,0-6.6.8-8.6,2.5-2,1.7-3,4-3,7.1s.8,3.9,2.4,5.5c1.6,1.6,3.9,2.8,6.8,3.5l2.9.8c1.3.3,2.3.7,3.1,1.3.7.5,1.1,1.2,1.1,2.2s-.5,1.7-1.4,2.2c-1,.5-2.2.8-3.8.8s-2.8-.4-4-1.1c-1.2-.8-2.1-1.7-2.7-2.8l-5.9,2.6c.6,1.5,1.6,2.8,2.8,3.9,1.2,1.1,2.7,2,4.4,2.6,1.7.6,3.6.9,5.6.9s4.4-.4,6.2-1.1c1.8-.8,3.2-1.8,4.2-3.2ZM350,61.6c1.1,0,2-.4,2.8-1.2.8-.8,1.2-1.7,1.2-2.8s-.4-2-1.2-2.8c-.8-.8-1.7-1.2-2.8-1.2s-2,.4-2.8,1.2c-.8.8-1.2,1.7-1.2,2.8s.4,2,1.2,2.8c.8.8,1.7,1.2,2.8,1.2ZM346.5,98h6.8v-30.5c0,0-6.7,0-6.7,0v30.5ZM378.4,91.2c-.6.4-1.2.8-1.6.9-.5.2-.9.2-1.3.2-1.3,0-2.3-.4-3-1.1-.7-.7-1-1.8-1-3.2v-14.8h8.2v-5.9h-8.2v-9.5h-6.8v9.5h-5.1v5.9h5.1v16.1c0,3,.8,5.3,2.5,6.9,1.7,1.6,4.1,2.4,7.4,2.4s2.1-.2,3.2-.6c1.1-.4,2.1-.9,3.2-1.7l-2.5-5.2ZM416.3,67.4h-7.5l-9,22.6-9.3-22.6h-7.5l13.6,30.3-1.7,3.9c-.4,1-.9,1.7-1.6,2.2-.7.5-1.5.8-2.5.8s-.9-.1-1.6-.3c-.7-.2-1.4-.5-2.1-.9l-2.6,5.6c1.1.6,2.2,1,3.5,1.4,1.2.4,2.3.5,3.3.5,2,0,3.7-.4,5-1.2,1.3-.8,2.4-1.9,3.3-3.4.9-1.5,1.7-3.2,2.6-5.1l14.2-33.8ZM463.9,74.4c1.3,2.4,2,5.2,2,8.3s-.7,5.9-2,8.3c-1.3,2.4-3.2,4.3-5.5,5.6-2.3,1.4-5,2-8.1,2s-5.8-.7-8.2-2c-2.4-1.4-4.2-3.2-5.6-5.6-1.3-2.4-2-5.2-2-8.3s.7-5.9,2-8.3c1.3-2.4,3.2-4.3,5.6-5.6,2.4-1.4,5.1-2,8.2-2s5.8.7,8.2,2c2.4,1.4,4.2,3.2,5.6,5.6ZM458.6,82.7c0-1.8-.4-3.5-1.1-4.9-.7-1.4-1.7-2.5-3-3.3-1.3-.8-2.7-1.2-4.4-1.2s-3.1.4-4.3,1.2c-1.3.8-2.2,1.9-3,3.3-.7,1.4-1.1,3.1-1.1,4.9s.4,3.5,1.1,4.9c.7,1.4,1.7,2.5,3,3.3s2.8,1.2,4.4,1.2,3.1-.4,4.3-1.2,2.2-1.9,2.9-3.3c.7-1.4,1.1-3.1,1.1-4.9ZM482.4,65.2c0-1.8.3-3.1.9-3.9.6-.8,1.5-1.2,2.7-1.2s1,0,1.6.2c.6.2,1.3.4,2,.8l2.5-5.1c-1.1-.6-2.3-1-3.5-1.4-1.2-.3-2.3-.5-3.4-.5-3.3,0-5.7.9-7.3,2.6-1.6,1.7-2.4,4.2-2.4,7.4v3.2h-5.3v5.6h5.3v24.9h6.8v-24.9h8v-5.6h-8v-2.3ZM142,116.3h-7.1v42.8h26.4v-6.5h-19.4v-36.3ZM190.3,134.3c1,2.2,1.5,4.8,1.5,8v16.7h-6.6v-3.3c-.2.2-.3.3-.4.5-1.8,2.4-4.5,3.6-8.3,3.6s-6.4-.8-8.5-2.4c-2-1.6-3-3.9-3-6.9s1.1-5.6,3.2-7.3c2.1-1.7,5.1-2.5,8.9-2.5h7.5c-.1-.9-.3-1.8-.5-2.5-.4-1.4-1.1-2.4-2.1-3.2-.9-.7-2.2-1.1-3.8-1.1s-2.7.3-3.8.9c-1.1.6-2,1.5-2.7,2.8l-6.1-2.1c.7-1.3,1.6-2.6,2.7-3.8,1.1-1.2,2.5-2.1,4.2-2.8,1.7-.7,3.7-1.1,6-1.1s5.4.5,7.4,1.6c2,1.1,3.5,2.7,4.4,4.9ZM184.9,146.4v-.5h-5.6c-2.7,0-4.6.4-5.7,1.1-1.1.8-1.6,1.8-1.6,3.2s.5,2.1,1.4,2.8c1,.7,2.3,1,4,1s2.8-.4,3.9-1.1c1.1-.7,2-1.6,2.6-2.8.6-1.2.9-2.4.9-3.8h0ZM215,127.8c-2.4,0-4.5.6-6.2,1.8-1.2.8-2.2,1.9-3,3.2l-.3-4.3h-6.4v30.5h6.8v-15.9c0-2.9.6-5.1,1.9-6.7,1.3-1.5,3-2.3,5.3-2.3,1.3,0,2.5.3,3.5.8,1,.5,1.8,1.5,2.3,2.8.5,1.3.8,3.2.8,5.6v15.6h6.8v-17.5c0-4.7-1-8.2-3-10.4-2-2.3-4.9-3.4-8.6-3.4ZM252.4,152.1c-1.3.9-2.9,1.3-4.6,1.3s-3.2-.4-4.5-1.3c-1.3-.8-2.4-2-3.1-3.4-.8-1.4-1.1-3.1-1.1-5s.4-3.5,1.1-5c.7-1.4,1.7-2.6,3.1-3.4,1.3-.8,2.8-1.3,4.5-1.3s3.2.4,4.6,1.2c1.3.8,2.3,1.9,3,3.2l6.4-2.4c-1.2-2.7-3-4.8-5.4-6.2-2.4-1.4-5.2-2.2-8.2-2.2s-5.8.7-8.2,2c-2.4,1.4-4.3,3.2-5.6,5.6-1.4,2.4-2,5.2-2,8.3s.7,5.9,2,8.3c1.4,2.4,3.2,4.3,5.6,5.6,2.4,1.4,5.2,2,8.3,2s5.8-.8,8.2-2.3c2.4-1.5,4.2-3.7,5.4-6.5l-6.4-2.4c-.7,1.5-1.6,2.7-3,3.6ZM291.4,134.3c1,2.2,1.5,4.8,1.5,8v16.7h-6.6v-3.3c-.2.2-.3.3-.4.5-1.8,2.4-4.5,3.6-8.3,3.6s-6.4-.8-8.5-2.4c-2-1.6-3-3.9-3-6.9s1.1-5.6,3.2-7.3c2.1-1.7,5.1-2.5,8.9-2.5h7.5c-.1-.9-.3-1.8-.5-2.5-.4-1.4-1.1-2.4-2.1-3.2-.9-.7-2.2-1.1-3.8-1.1s-2.7.3-3.8.9c-1.1.6-2,1.5-2.7,2.8l-6.1-2.1c.7-1.3,1.6-2.6,2.7-3.8,1.1-1.2,2.5-2.1,4.2-2.8,1.7-.7,3.7-1.1,6-1.1s5.4.5,7.4,1.6c2,1.1,3.5,2.7,4.4,4.9ZM286,146.4v-.5h-5.6c-2.7,0-4.6.4-5.7,1.1-1.1.8-1.6,1.8-1.6,3.2s.5,2.1,1.4,2.8c1,.7,2.3,1,4,1s2.8-.4,3.9-1.1c1.1-.7,2-1.6,2.6-2.8.6-1.2.9-2.4.9-3.8h0ZM319.5,143.2c-1.3-1-2.9-1.8-4.9-2.3l-3.6-.9c-1.3-.3-2.2-.7-2.9-1.3-.7-.5-1-1.1-1-1.7,0-1,.4-1.8,1.2-2.4.8-.6,1.8-.9,3.2-.9s2.6.3,3.8.8c1.1.5,1.9,1.3,2.3,2.3l5.7-2.6c-.4-1.3-1.2-2.5-2.4-3.5-1.1-1-2.5-1.8-4.1-2.3-1.6-.5-3.3-.8-5.2-.8-3.7,0-6.6.8-8.6,2.5-2,1.7-3,4-3,7.1s.8,3.9,2.4,5.5c1.6,1.6,3.9,2.8,6.8,3.5l2.9.8c1.3.3,2.3.7,3.1,1.3.7.5,1.1,1.2,1.1,2.2s-.5,1.7-1.4,2.2c-1,.5-2.2.8-3.8.8s-2.8-.4-4-1.1c-1.2-.8-2.1-1.7-2.7-2.8l-5.9,2.6c.7,1.5,1.6,2.8,2.8,3.9,1.2,1.1,2.7,2,4.4,2.6,1.7.6,3.6.9,5.6.9s4.4-.4,6.2-1.1c1.8-.8,3.2-1.8,4.2-3.2,1-1.4,1.6-3,1.6-4.8s-.3-2.6-.9-3.9c-.6-1.3-1.6-2.4-2.8-3.5ZM345,127.8c-2.4,0-4.5.6-6.2,1.8-1.1.8-2.1,1.8-2.9,3.1v-16.9h-6.9v43.3h6.9v-15.9s0,0,0,0c0-2.9.6-5.1,1.9-6.7,1.2-1.5,3-2.3,5.3-2.3,1.3,0,2.5.3,3.4.8,1,.5,1.8,1.5,2.4,2.8.6,1.3.9,3.2.9,5.6v15.6h6.8v-17.5c0-4.7-1-8.2-3.1-10.4-2-2.3-4.9-3.4-8.6-3.4ZM367.7,114.7c-1.1,0-2,.4-2.8,1.2-.8.8-1.2,1.7-1.2,2.8s.4,2,1.2,2.8c.8.8,1.7,1.2,2.8,1.2s2-.4,2.8-1.2c.8-.8,1.2-1.7,1.2-2.8s-.4-2-1.2-2.8c-.8-.8-1.7-1.2-2.8-1.2ZM364.3,159h6.8v-30.5c0,0-6.7,0-6.7,0v30.5ZM386.4,134v-5.5h-6.8v30.5h6.8v-16.4c0-1.9.5-3.4,1.5-4.5,1-1.1,2.4-2,4-2.5,1.6-.5,3.4-.8,5.3-.8v-6.5c-2.2,0-4.3.5-6.3,1.6-1.8.9-3.3,2.3-4.5,4.1ZM423.9,145.4h-15.9c.1,1.4.5,2.6,1.1,3.7.8,1.4,1.8,2.5,3.1,3.3,1.3.8,2.8,1.1,4.4,1.1s3.3-.4,4.5-1.3c1.2-.8,2.1-1.9,2.7-3.2l6.3,2.7c-.9,1.6-1.9,3.1-3.2,4.3-1.3,1.2-2.9,2.2-4.7,2.8-1.8.7-3.9,1-6.2,1s-5.6-.7-7.9-2c-2.3-1.4-4.1-3.2-5.4-5.6-1.3-2.4-2-5.2-2-8.3s.7-5.9,2-8.3c1.3-2.4,3.2-4.3,5.5-5.6,2.3-1.4,5-2,8.1-2s5.1.7,7.3,2.1c2.2,1.4,3.9,3.4,5.2,6.1,1.3,2.6,1.9,5.8,1.9,9.5h-6.9ZM423.3,140c0-.4-.2-.8-.3-1.1-.6-1.7-1.5-3-2.7-3.8-1.2-.8-2.6-1.3-4.2-1.3s-3.2.4-4.4,1.2c-1.2.8-2.1,1.9-2.8,3.4-.2.5-.4,1-.5,1.6h14.9Z"/>
  </g>
</svg>